# xmcd
#
# Track frame offsets: 
#        150
#        11237
#        23132
#        35331
#        47443
#        57117
#        70147
#        83394
#        94822
#        105140
#        117643
#        127151
#        137046
#        151504
#        162169
#        172625
#        183664
#        192697
#        204959
#        215184
#        225509
#        237234
#        246777
#        257619
#        269621
#        281103
#        291936
#        304394
#        314054
#        323881
#        333328
#        343778
#
# Disc length: 4735 seconds
#
# Revision: 0
# Processed by: cddbd v1.5.2PL0 Copyright (c) Steve Scherf et al.
# Submitted via: ExactAudioCopy v0.99pb5
#
DISCID=d4127d20
DTITLE=Ella Mae Morse - Barrelhouse, Boogie and the Blues (Chrome Drea
DTITLE=ms)
DYEAR=1900
DGENRE=Blues
TTITLE0=Rock Me All Night Long
TTITLE1=Money Honey
TTITLE2=I Love You, Yes I Do
TTITLE3=Daddy, Daddy
TTITLE4=(We've Reached) The Point of No Return
TTITLE5=Forty Cups of Coffee
TTITLE6=Teardrops from My Eyes
TTITLE7=5-10-15 Hours
TTITLE8=Have Mercy Baby
TTITLE9=How Can You Leave a man Like This
TTITLE10=Give a Little Time to Your Lover
TTITLE11=Goodnight, It's Time to Go
TTITLE12=Male Call (1952)
TTITLE13=Big Mamou (1953)
TTITLE14=Happy Habit (1954)
TTITLE15=An Occasional Man (1955)
TTITLE16=When Boy Kiss Girl (It's Love) (1955)
TTITLE17=Lovey Dovey (1955)
TTITLE18=Bring Back My Baby (1955)
TTITLE19=Livin' Livin' Livin' (1955)
TTITLE20=Birmingham (1955)
TTITLE21=Singing-ing-ing (1955)
TTITLE22=Give Me Love (1956)
TTITLE23=Down in Mexico (1956)
TTITLE24=Rock and Roll Wedding (1956)
TTITLE25=I'm Gonna Walk (1956)
TTITLE26=Coffee Date (1956)
TTITLE27=What Good'll It Do Me (1957)
TTITLE28=Put Your Arms Around Me, Honey (1957)
TTITLE29=I'm Gonna Sit Right Down (And Write Myself a Letter) (1957)
TTITLE30=Mister Memory Maker (1957)
TTITLE31=A Long Time Ago (1957)
EXTD=
EXTT0=
EXTT1=
EXTT2=
EXTT3=
EXTT4=
EXTT5=
EXTT6=
EXTT7=
EXTT8=
EXTT9=
EXTT10=
EXTT11=
EXTT12=
EXTT13=
EXTT14=
EXTT15=
EXTT16=
EXTT17=
EXTT18=
EXTT19=
EXTT20=
EXTT21=
EXTT22=
EXTT23=
EXTT24=
EXTT25=
EXTT26=
EXTT27=
EXTT28=
EXTT29=
EXTT30=
EXTT31=
PLAYORDER=
